<svg xmlns="http://www.w3.org/2000/svg" width="900" height="520">
<rect width="100%" height="100%" fill="white"/>
<text x="450" y="32" text-anchor="middle" font-family="Arial" font-size="22" font-weight="bold">A-3 Execution Time Comparison</text>
<line x1="90" y1="60" x2="90" y2="420" stroke="#333" stroke-width="2"/>
<line x1="90" y1="420" x2="860" y2="420" stroke="#333" stroke-width="2"/>
<line x1="90" y1="420.0" x2="860" y2="420.0" stroke="#ddd"/>
<text x="80" y="425.0" text-anchor="end" font-family="Arial" font-size="13">0.00</text>
<line x1="90" y1="348.0" x2="860" y2="348.0" stroke="#ddd"/>
<text x="80" y="353.0" text-anchor="end" font-family="Arial" font-size="13">1.17</text>
<line x1="90" y1="276.0" x2="860" y2="276.0" stroke="#ddd"/>
<text x="80" y="281.0" text-anchor="end" font-family="Arial" font-size="13">2.34</text>
<line x1="90" y1="204.0" x2="860" y2="204.0" stroke="#ddd"/>
<text x="80" y="209.0" text-anchor="end" font-family="Arial" font-size="13">3.51</text>
<line x1="90" y1="132.0" x2="860" y2="132.0" stroke="#ddd"/>
<text x="80" y="137.0" text-anchor="end" font-family="Arial" font-size="13">4.67</text>
<line x1="90" y1="60.0" x2="860" y2="60.0" stroke="#ddd"/>
<text x="80" y="65.0" text-anchor="end" font-family="Arial" font-size="13">5.84</text>
<rect x="218.3" y="386.1" width="128.3" height="33.9" fill="#287D3C"/>
<text x="282.5" y="376.1" text-anchor="middle" font-family="Arial" font-size="15" font-weight="bold">0.549s</text>
<text x="282.5" y="450" text-anchor="middle" font-family="Arial" font-size="14">Pandas</text>
<rect x="475.0" y="142.9" width="128.3" height="277.1" fill="#2474B5"/>
<text x="539.2" y="132.9" text-anchor="middle" font-family="Arial" font-size="15" font-weight="bold">4.497s</text>
<text x="539.2" y="450" text-anchor="middle" font-family="Arial" font-size="14">PySpark (1 executor)</text>
<rect x="731.7" y="107.0" width="128.3" height="313.0" fill="#D97706"/>
<text x="795.8" y="97.0" text-anchor="middle" font-family="Arial" font-size="15" font-weight="bold">5.080s</text>
<text x="795.8" y="450" text-anchor="middle" font-family="Arial" font-size="14">PySpark (2 executor)</text>
<text x="22" y="260" transform="rotate(-90 22 260)" text-anchor="middle" font-family="Arial" font-size="15">Average execution time (seconds)</text>
</svg>